<svg width="312" height="312" viewBox="0 0 312 312" fill="none" xmlns="http://www.w3.org/2000/svg">
<path d="M119.5 209C109.435 209 100.834 205.522 93.6978 198.566C86.5615 191.609 82.9956 183.107 83 173.059C83 164.447 85.5992 156.773 90.7977 150.038C95.9962 143.302 102.798 138.996 111.205 137.119C113.97 126.96 119.5 118.734 127.795 112.441C136.091 106.147 145.492 103 156 103C168.941 103 179.92 107.501 188.936 116.502C197.953 125.503 202.459 136.461 202.455 149.375C210.086 150.258 216.42 153.544 221.454 159.233C226.489 164.922 229.004 171.573 229 179.188C229 187.469 226.095 194.509 220.286 200.308C214.477 206.107 207.427 209.004 199.136 209H119.5ZM119.5 195.75H199.136C203.782 195.75 207.708 194.149 210.916 190.947C214.123 187.745 215.727 183.825 215.727 179.188C215.727 174.55 214.123 170.63 210.916 167.428C207.708 164.226 203.782 162.625 199.136 162.625H189.182V149.375C189.182 140.21 185.945 132.397 179.473 125.936C173 119.474 165.176 116.246 156 116.25C146.82 116.25 138.993 119.481 132.521 125.942C126.048 132.404 122.814 140.215 122.818 149.375H119.5C113.085 149.375 107.61 151.639 103.075 156.166C98.5402 160.693 96.2727 166.158 96.2727 172.562C96.2727 178.967 98.5402 184.432 103.075 188.959C107.61 193.486 113.085 195.75 119.5 195.75Z" fill="white"/>
<path fill-rule="evenodd" clip-rule="evenodd" d="M156 289C227.797 289 286 230.797 286 159C286 87.203 227.797 29 156 29C84.203 29 26 87.203 26 159C26 230.797 84.203 289 156 289ZM156 303C235.529 303 300 238.529 300 159C300 79.471 235.529 15 156 15C76.471 15 12 79.471 12 159C12 238.529 76.471 303 156 303Z" fill="white"/>
<path d="M168 162C168 168.627 162.627 174 156 174C149.373 174 144 168.627 144 162C144 155.373 149.373 150 156 150C162.627 150 168 155.373 168 162Z" fill="white"/>
</svg>
